<svg xmlns="http://www.w3.org/2000/svg" viewBox="0 0 69.92 90.52"><defs><style>.cls-1{fill:#fff;}</style></defs><g id="Capa_2" data-name="Capa 2"><g id="Capa_2-2" data-name="Capa 2"><path class="cls-1" d="M67.24,42.38l-.08-.17c-.82-1.9-3.57-6.61-8.68-15.18,0,0-9.37-15.95-9.18-27,0,0-5.94,1.76-17.58,8.72C23.38,13.7-2,29.12.12,57.93c0,.3.07.61.12.9a34.91,34.91,0,0,0,69.68-3.08,34.54,34.54,0,0,0-2.68-13.37M35,74.12a18.41,18.41,0,0,1-18.4-17.27,8.58,8.58,0,0,0-.1-.87c-.2-6.06,2.58-18.13,22.86-32.31a37.09,37.09,0,0,0,4.38,10.79l.58,1c1.91,3.21,7,11.66,7.69,13.23l0,.06a18.06,18.06,0,0,1,1.41,7A18.42,18.42,0,0,1,35,74.12"/></g></g></svg>