<?xml version="1.0" encoding="UTF-8"?><svg id="Layer_2" xmlns="http://www.w3.org/2000/svg" viewBox="0 0 110.8 71.55"><defs><style>.cls-1{fill:#855256;}</style></defs><g id="Capa_2"><g><path class="cls-1" d="M42.42,6.31c5.29-2.14,10.62,.71,13.39,4.35,1.98,2.61,1.88,5.4,.27,8.18-1.36,2.34-3.41,3.99-5.58,5.51-.83,.58-1.67,1.13-2.66,1.79h62.85c.03-.5,.08-.91,.08-1.31,0-6.34,.01-12.67,0-19.01,0-3.51-2.32-5.8-5.85-5.8-23.26,0-46.53,0-69.79,0-.49,0-.99,.04-1.56,.07V15.45c.65-1.05,1.15-1.93,1.72-2.76,1.85-2.71,4.01-5.11,7.13-6.37Z"/><path class="cls-1" d="M109.13,32.46c-19.65,.04-39.3,.03-58.96,.03-.32,0-.65,.04-1.15,.08,.49,.41,.8,.68,1.13,.94,5.12,4.07,7.44,10.05,2.77,16.53-.06,.08-.1,.19-.14,.31-.23,.29-.46,.57-.7,.83,0,0-.01-.02-.02-.02-.12,.16-.31,.32-.4,.46-.29,.29-.59,.56-.9,.8-.39,.17-.68,.38-.89,.62-.89,.54-1.83,.89-2.85,1.06-.23-.03-.57,.01-1.05,.11-1.77-.04-4.19-1.58-5.89-2.85-.27-.29-.59-.54-.93-.72-.48-.39-.84-.69-1-.84,.05,0,.09,0,.14,0-1.64-2.53-3.16-4.88-4.71-7.26v16.08c.54,.03,1,.07,1.45,.07,23.35,0,46.7,.02,70.05,0,3.44,0,5.67-2.28,5.68-5.79,.02-6.24-.03-12.49,.03-18.73,.01-1.31-.31-1.71-1.67-1.71Zm-40.93,18.6s.06-.05,.09-.07h0s-.06,.05-.09,.07Zm9.89,1.03c.36,.12,.53,.4,.6,.94-.07-.54-.24-.82-.6-.94Zm5.01,5.28h0c.46,.64,.81,.65,1.07,.37-.25,.28-.61,.27-1.07-.37Zm3.43-4.52c-1.67,.24-1.76,.26-1.8,1.7,.04-1.45,.13-1.46,1.8-1.7h0Z"/><path class="cls-1" d="M28.04,26.17c.05-.36,.11-.58,.11-.81,0-8.09,0-16.18,.02-24.27C28.17,.08,27.67,0,26.87,0,20.03,.02,13.18,.01,6.34,.03,2.15,.04,.01,2.17,0,6.32c-.01,5.64,0,11.28,0,16.92v2.93H28.04Z"/><path class="cls-1" d="M103.37,64c-22.51,0-45.03,0-67.54,0-.51,0-1.04-.07-1.52,.06-.31,.08-.77,.45-.77,.7-.06,2.2-.04,4.41-.04,6.79,.92,0,1.65,0,2.38,0,22.19,0,44.38,0,66.57,0,1.02,0,2.03,.02,3.05-.02,2.69-.09,4.9-1.99,5.21-4.64,.16-1.36,.03-2.74,.03-4.42-2.46,1.5-4.9,1.53-7.37,1.53Z"/><path class="cls-1" d="M28.15,64.07c-.54-.03-1.03-.07-1.51-.07-5.27,0-10.54,.03-15.81-.03-3.57-.04-7.21,.5-10.71-1.39-.05,.99-.12,1.76-.11,2.54,0,.64,.06,1.29,.15,1.93,.35,2.45,2.31,4.4,4.76,4.42,7.4,.08,14.79,.03,22.19,.06,.77,0,1.06-.3,1.05-1.07-.03-2.08-.01-4.16-.01-6.4Z"/><path class="cls-1" d="M51.39,16.31c.4-.55,.55-1.66,.27-2.27-1.39-3-5.97-4.13-8.57-2.11-4.6,3.59-6.38,8.83-8.01,14.18,4.78-1.73,9.32-3.74,13.32-6.76,1.12-.85,2.15-1.9,2.98-3.04Z"/><path class="cls-1" d="M35.6,34.2c1.64,3.19,3.2,6.44,5.01,9.54,.89,1.52,2.16,2.89,3.48,4.08,1.69,1.52,2.95,1.27,4.3-.52,2.54-3.35,2.31-6.18-.78-9.03-2.62-2.42-5.77-3.97-9.06-5.22-1.04-.4-2.2-.51-3.71-.84,.37,.98,.51,1.51,.76,1.99Z"/><path class="cls-1" d="M18.13,38c-2.28,1.41-4.34,3.24-6.26,5.13-1.13,1.11-.93,2.27,.31,3.24,1.27,.99,2.74,1.73,4.12,2.58l.16-.54c.39-.55,.78-1.09,1.17-1.64l1.81,1.34c4.94-3.54,6.93-9.02,8.94-14.96-.85,.31-1.29,.42-1.7,.62-2.87,1.38-5.86,2.57-8.55,4.23Z"/><path class="cls-1" d="M28.08,51.38c.1-.26,.22-.52,.35-.79-.12,.07-.24,.14-.35,.21,0-.47,0-.94,0-1.38,.2-.82,0-1.72,0-2.74-.21,.27-.41,.53-.59,.78-1.55,1.87-5.6,6.05-9.61,6.32-4.49,.31-7.89-2.35-8.27-2.67l-.04-.03c-.8-.69-1.6-1.42-2.21-2.27-1.85-2.54-2.08-5.34-.29-7.89,1.35-1.93,3.13-3.62,4.91-5.18,1.39-1.22,3.09-2.09,4.7-3.14H.22c-.09,.19-.16,.28-.16,.36,0,6.89-.13,13.78,.05,20.66,.08,3.2,2.51,5.09,5.79,5.09,.84,0,1.69,0,2.53,0v.08H28.12v-.54s0-.63,0-1.6c.12,.05,.26,.1,.4,.15-.16-.23-.29-.45-.4-.68,0-1.3-.02-3.04-.02-4.74Z"/></g></g></svg>